<?xml version="1.0" encoding="UTF-8" standalone="no"?>
<!-- Created with Inkscape (http://www.inkscape.org/) -->

<svg
   width="210mm"
   height="297mm"
   viewBox="0 0 210 297"
   version="1.1"
   id="svg1"
   inkscape:version="1.4.1-rc (832c77b156, 2025-02-28)"
   sodipodi:docname="icons.svg"
   xml:space="preserve"
   xmlns:inkscape="http://www.inkscape.org/namespaces/inkscape"
   xmlns:sodipodi="http://sodipodi.sourceforge.net/DTD/sodipodi-0.dtd"
   xmlns="http://www.w3.org/2000/svg"
   xmlns:svg="http://www.w3.org/2000/svg"><sodipodi:namedview
     id="namedview1"
     pagecolor="#505050"
     bordercolor="#eeeeee"
     borderopacity="1"
     inkscape:showpageshadow="0"
     inkscape:pageopacity="0"
     inkscape:pagecheckerboard="0"
     inkscape:deskcolor="#505050"
     inkscape:document-units="mm"
     inkscape:zoom="1.4142136"
     inkscape:cx="270.11479"
     inkscape:cy="297.69195"
     inkscape:window-width="1789"
     inkscape:window-height="1214"
     inkscape:window-x="279"
     inkscape:window-y="127"
     inkscape:window-maximized="0"
     inkscape:current-layer="layer1"
     showguides="false" /><defs
     id="defs1" /><g
     inkscape:label="Layer 1"
     inkscape:groupmode="layer"
     id="layer1"><path
       id="rect2-9"
       style="fill:#ddfac3;fill-opacity:1;stroke:#2e3436;stroke-width:3.43373;stroke-dasharray:none;stroke-opacity:1"
       d="m 113.29036,18.100386 -5.94452,-5.94389 -14.650704,14.65132 -14.651323,-14.65132 -5.943867,5.94389 14.651338,14.6513 -14.651349,14.651358 5.943878,5.94386 14.65131,-14.651298 14.650717,14.651298 5.94451,-5.94386 -14.651342,-14.651358 z"
       inkscape:export-filename="../e9ae2cb7/not_mine.png"
       inkscape:export-xdpi="96"
       inkscape:export-ydpi="96" /><rect
       style="fill:#fea785;fill-opacity:1;stroke:#303637;stroke-width:3.43373;stroke-dasharray:none;stroke-opacity:1"
       id="rect9"
       width="7.1267209"
       height="19.682268"
       x="36.132866"
       y="8.1603642"
       ry="3.6604211"
       inkscape:transform-center-x="0.085704448"
       inkscape:transform-center-y="-16.611723"
       inkscape:export-filename="../94439704/mine.png"
       inkscape:export-xdpi="96"
       inkscape:export-ydpi="96" /><rect
       style="fill:#fea785;fill-opacity:1;stroke:#303637;stroke-width:3.43373;stroke-dasharray:none;stroke-opacity:1"
       id="rect14"
       width="7.1313181"
       height="19.669582"
       x="-53.524696"
       y="-9.2716646"
       ry="3.6580622"
       inkscape:transform-center-x="14.330945"
       inkscape:transform-center-y="8.3801267"
       transform="matrix(-0.49967766,-0.86621143,0.86583918,-0.5003224,0,0)" /><rect
       style="fill:#fea785;fill-opacity:1;stroke:#303637;stroke-width:3.43373;stroke-dasharray:none;stroke-opacity:1"
       id="rect12"
       width="7.1313181"
       height="19.669582"
       x="6.4142275"
       y="-78.190857"
       ry="3.6580622"
       inkscape:transform-center-x="-14.416676"
       inkscape:transform-center-y="8.2315399"
       transform="matrix(-0.49967766,0.86621143,-0.86583918,-0.5003224,0,0)" /><ellipse
       style="fill:#fea785;fill-opacity:1;stroke:#303637;stroke-width:3.43373;stroke-dasharray:none;stroke-opacity:1"
       id="path6"
       cx="39.78194"
       cy="34.613216"
       rx="17.558485"
       ry="17.573587" /><path
       id="rect13"
       style="fill:#fea785;fill-opacity:1;stroke:#303637;stroke-width:3.43373"
       inkscape:transform-center-x="-0.085735944"
       inkscape:transform-center-y="16.611689"
       d="m 39.867671,58.555494 c -1.974101,0 -3.56336,-1.63254 -3.56336,-3.6604 v -7.3404 c 0,-2.02789 1.589259,-3.66042 3.56336,-3.66042 1.974104,0 3.563364,1.63253 3.563364,3.66042 v 7.3404 c 0,2.02786 -1.58926,3.6604 -3.563364,3.6604 z"
       sodipodi:nodetypes="sssssss" /><path
       id="path16"
       style="fill:#fea785;fill-opacity:1;stroke:#303637;stroke-width:3.43373"
       inkscape:transform-center-x="14.416657"
       inkscape:transform-center-y="-8.2315294"
       d="m 19.022233,22.716376 c 0.987048,-1.71108 3.194298,-2.27234 4.948974,-1.2584 l 6.3515,3.6702 c 1.754702,1.01395 2.372668,3.20772 1.385614,4.91882 -0.987046,1.71109 -3.194275,2.27237 -4.948974,1.25842 l -6.351499,-3.6702 c -1.75468,-1.01395 -2.372664,-3.20775 -1.385615,-4.91884 z"
       sodipodi:nodetypes="sssssss" /><path
       id="path17"
       style="fill:#fea785;fill-opacity:1;stroke:#303637;stroke-width:3.43373"
       inkscape:transform-center-x="-14.330921"
       inkscape:transform-center-y="-8.3801534"
       d="m 60.455904,22.567746 c 0.987054,1.71108 0.369063,3.9049 -1.385614,4.91883 l -6.351501,3.67021 c -1.754698,1.01392 -3.961924,0.4527 -4.948977,-1.25841 -0.987047,-1.71108 -0.369083,-3.9049 1.385614,-4.91882 l 6.351504,-3.6702 c 1.754674,-1.01394 3.961923,-0.45268 4.948974,1.25839 z"
       sodipodi:nodetypes="sssssss" /></g></svg>
